<?xml version="1.0" encoding="windows-1252"?>
<!-- Generator: Adobe Illustrator 19.0.0, SVG Export Plug-In . SVG Version: 6.00 Build 0)  -->
<svg version="1.1" id="Layer_1" xmlns="http://www.w3.org/2000/svg" xmlns:xlink="http://www.w3.org/1999/xlink" x="0px" y="0px" viewBox="0 0 512 512" style="enable-background:new 0 0 512 512;" xml:space="preserve">
<path style="fill:#8C5338;" d="M447.1,75.899l-7.8,127.4L430.3,347c-17.401,88.2-18.3,94.2-18.3,94.499l-7.5,21  c-10.8,29.7-39,49.501-70.501,49.501H178.001c-52.5,0-67.202-40.501-78.001-70.501L81.7,347l-9-143.701l-7.8-127.4  C63.401,54.6,71.499,35.099,85.6,21c4.2-4.2,9-8.101,14.099-11.102C110.2,3.6,122.8,0,136,0h240c13.2,0,25.8,3.6,36.301,9.899  C417.7,12.9,422.5,16.8,426.4,21C440.501,35.099,448.599,54.6,447.1,75.899z"/>
<path style="fill:#804C33;" d="M447.1,75.899l-7.8,127.4L430.3,347c-17.401,88.2-18.3,94.2-18.3,94.499l-7.5,21  c-10.8,29.7-39,49.501-70.501,49.501H256V0h120c13.2,0,25.8,3.6,36.301,9.899C417.7,12.9,422.5,16.8,426.4,21  C440.501,35.099,448.599,54.6,447.1,75.899z"/>
<path style="fill:#F29A36;" d="M329.872,281.302l-36.855-89.751h-74.033l-36.855,89.751c-2.3,5.596-1.011,12.026,3.267,16.304l60,60  c2.93,2.93,6.768,4.395,10.605,4.395c3.837,0,7.676-1.465,10.605-4.395l60-60C330.883,293.328,332.172,286.897,329.872,281.302z"/>
<path style="fill:#E7812E;" d="M293.017,191.551H256V362c3.838,0,7.676-1.465,10.605-4.395l60-60  c4.277-4.277,5.566-10.708,3.267-16.304L293.017,191.551z"/>
<path style="fill:#8C5338;" d="M121,362c-16.538,0-30,13.462-30,30s13.462,30,30,30h270c16.538,0,30-13.462,30-30s-13.462-30-30-30  H121z"/>
<path style="fill:#804C33;" d="M391,362H256v60h135c16.538,0,30-13.462,30-30S407.538,362,391,362z"/>
<path style="fill:#995B3D;" d="M436,302h-60c-8.291,0-15-6.709-15-15s6.709-15,15-15h60c8.291,0,15,6.709,15,15S444.291,302,436,302  z"/>
<g>
	<path style="fill:#A66342;" d="M136,302H76c-8.291,0-15-6.709-15-15s6.709-15,15-15h60c8.291,0,15,6.709,15,15S144.291,302,136,302   z"/>
	<path style="fill:#A66342;" d="M136,452c-8.291,0-15-6.709-15-15v-90c0-8.291,6.709-15,15-15s15,6.709,15,15v90   C151,445.291,144.291,452,136,452z"/>
	<path style="fill:#A66342;" d="M196,452c-8.291,0-15-6.709-15-15v-90c0-8.291,6.709-15,15-15s15,6.709,15,15v90   C211,445.291,204.291,452,196,452z"/>
	<path style="fill:#A66342;" d="M256,452c-8.291,0-15-6.709-15-15v-90c0-8.291,6.709-15,15-15c8.291,0,15,6.709,15,15v90   C271,445.291,264.291,452,256,452z"/>
</g>
<g>
	<path style="fill:#995B3D;" d="M271,437v-90c0-8.291-6.709-15-15-15v120C264.291,452,271,445.291,271,437z"/>
	<path style="fill:#995B3D;" d="M316,452c-8.291,0-15-6.709-15-15v-90c0-8.291,6.709-15,15-15s15,6.709,15,15v90   C331,445.291,324.291,452,316,452z"/>
	<path style="fill:#995B3D;" d="M376,452c-8.291,0-15-6.709-15-15v-90c0-8.291,6.709-15,15-15s15,6.709,15,15v90   C391,445.291,384.291,452,376,452z"/>
</g>
<path style="fill:#EC7838;" d="M391,332H121c-33.091,0-60,26.909-60,60s26.909,60,60,60h270c33.091,0,60-26.909,60-60  S424.091,332,391,332z M391,422H121c-16.538,0-30-13.462-30-30s13.462-30,30-30h270c16.538,0,30,13.462,30,30S407.538,422,391,422z"/>
<path style="fill:#DB632C;" d="M391,332H256v30h135c16.538,0,30,13.462,30,30s-13.462,30-30,30H256v30h135c33.091,0,60-26.909,60-60  S424.091,332,391,332z"/>
<path style="fill:#EC7838;" d="M426.4,21L262,88.799C259.9,89.7,258.1,90,256,90s-3.9-0.3-6-1.201L85.6,21  c4.2-4.2,9-8.101,14.099-11.102C110.2,3.6,122.8,0,136,0h240c13.2,0,25.8,3.6,36.301,9.899C417.4,12.9,422.199,16.8,426.4,21z"/>
<path style="fill:#DB632C;" d="M426.4,21L262,88.799C259.9,89.7,258.1,90,256,90V0h120c13.2,0,25.8,3.6,36.301,9.899  C417.4,12.9,422.199,16.8,426.4,21z"/>
<path style="fill:#EC7838;" d="M406,120c-108.558,0-191.442,0-300,0c-24.814,0-45,20.186-45,45c0,41.353,33.647,77,75,77h30  c38.39,0,71.686-20.94,90-51.78c18.314,30.84,51.61,51.78,90,51.78h29.883c41.353,0,75.044-35.633,75.117-77  C451,140.186,430.814,120,406,120z"/>
<path style="fill:#DB632C;" d="M346,242h29.883c41.353,0,75.044-35.633,75.117-77c0-24.814-20.186-45-45-45  c-54.278,0-102.14,0-150,0v70.22C274.314,221.06,307.61,242,346,242z"/>
<path style="fill:#804C33;" d="M346,212c-26.409,0-50.411-13.868-64.205-37.098L267.007,150H406c8.271,0,15,6.729,15,15  c-0.045,25.452-20.706,47-45.117,47H346z"/>
<path style="fill:#8C5338;" d="M136,212c-24.393,0-45-21.523-45-47c0-8.271,6.729-15,15-15h138.993l-14.788,24.902  C216.411,198.132,192.409,212,166,212H136z"/>
<path style="fill:#A66342;" d="M436,150H76c-24.714,0-45-19.981-45-45c0-30.148,30.537-50.627,49.746-44.224L256,119.194  l175.254-58.418C450.463,54.373,481,74.861,481,105C481,129.714,461.019,150,436,150z"/>
<path style="fill:#995B3D;" d="M436,150c25.02,0,45-20.286,45-45c0-30.139-30.536-50.627-49.746-44.224L256,119.194V150H436z"/>
<g>
</g>
<g>
</g>
<g>
</g>
<g>
</g>
<g>
</g>
<g>
</g>
<g>
</g>
<g>
</g>
<g>
</g>
<g>
</g>
<g>
</g>
<g>
</g>
<g>
</g>
<g>
</g>
<g>
</g>
</svg>